<?xml version="1.0" encoding="utf-8"?>
<!-- Generator: Adobe Illustrator 23.0.1, SVG Export Plug-In . SVG Version: 6.00 Build 0)  -->
<svg version="1.1" id="Layer_1" xmlns="http://www.w3.org/2000/svg" xmlns:xlink="http://www.w3.org/1999/xlink" x="0px" y="0px"
	 viewBox="0 0 216 79.84" style="enable-background:new 0 0 216 79.84;" xml:space="preserve">
<style type="text/css">
	.st0{fill:#FFFFFF;}
	.st1{fill:#FF9600;}
	.st2{fill:#FF6400;}
	.st3{fill:#FFD700;}
</style>
<g id="XMLID_1_">
	<g id="XMLID_4_">
		<path id="XMLID_76_" class="st0" d="M118.59,72.7c0,5.18-2.25,7.13-6.53,7.13H99.71c-4.28,0-6.54-1.95-6.54-7.13V29.01h8.47v42.35
			h8.47V29.01h8.47V72.7z"/>
		<path id="XMLID_75_" class="st0" d="M145.96,29.01h-9.41h-9.48v50.83h8.47V37.48H144v42.35h8.47V36.23
			C152.48,31.05,150.23,29.01,145.96,29.01z"/>
		<path id="XMLID_73_" class="st0" d="M182.12,79.84h-21.17V29.01h21.17v8.47h-12.7v8.47h11.8v8.47h-11.8v16.94h12.7V79.84z"/>
		<path id="XMLID_70_" class="st0" d="M216,72.87c0,4.67-2.25,6.96-6.39,6.96h-19.02V29.01h19.02c3.99,0,6.39,1.87,6.39,6.96V72.87z
			 M207.53,71.37V37.48h-8.47v33.88H207.53z"/>
		<g id="XMLID_66_">
			<path id="XMLID_67_" class="st0" d="M6.59,29.01C2.32,29.01,0,31.05,0,36.23v43.61h8.47V62.9h8.47v16.94h8.47V29.01H6.59z
				 M16.94,54.43H8.47V37.48h8.47V54.43z"/>
		</g>
		<path id="XMLID_63_" class="st1" d="M68.48,14.51h-5.17c-0.91,0-1.64,0.74-1.64,1.64v0c0,0.91,0.74,1.64,1.64,1.64h5.17
			c0.91,0,1.64-0.74,1.64-1.64v0C70.13,15.25,69.39,14.51,68.48,14.51z"/>
		<path id="XMLID_54_" class="st1" d="M70.13,11.33v-0.01c0-0.91-0.74-1.64-1.64-1.64h-5.17c-0.91,0-1.64,0.74-1.64,1.64v0.01
			c0,0.91,0.74,1.64,1.64,1.64h5.17C69.39,12.97,70.13,12.24,70.13,11.33z"/>
		<path id="XMLID_53_" class="st1" d="M50.36,17.8h5.17c0.91,0,1.64-0.74,1.64-1.64v0c0-0.91-0.74-1.64-1.64-1.64h-5.17
			c-0.91,0-1.64,0.74-1.64,1.64v0C48.72,17.06,49.45,17.8,50.36,17.8z"/>
		<path id="XMLID_52_" class="st1" d="M46.13,14.51h-5.18c-0.91,0-1.64,0.74-1.64,1.64v0c0,0.91,0.74,1.64,1.64,1.64h5.18
			c0.91,0,1.64-0.74,1.64-1.64v0C47.78,15.25,47.04,14.51,46.13,14.51z"/>
		<path id="XMLID_47_" class="st1" d="M47.78,11.33v-0.01c0-0.91-0.74-1.64-1.64-1.64h-5.18c-0.91,0-1.64,0.74-1.64,1.64v0.01
			c0,0.91,0.74,1.64,1.64,1.64h5.18C47.04,12.97,47.78,12.24,47.78,11.33z"/>
		<path id="XMLID_46_" class="st1" d="M50.36,12.97h5.17c0.91,0,1.64-0.74,1.64-1.64v-0.01c0-0.91-0.74-1.64-1.64-1.64h-5.17
			c-0.91,0-1.64,0.74-1.64,1.64v0.01C48.72,12.24,49.45,12.97,50.36,12.97z"/>
		<path id="XMLID_45_" class="st2" d="M57.17,1.66V1.64c0-0.91-0.74-1.64-1.64-1.64h-5.17c-0.91,0-1.64,0.74-1.64,1.64v0.01
			c0,0.91,0.74,1.64,1.64,1.64h5.17C56.44,3.3,57.17,2.57,57.17,1.66z"/>
		<path id="XMLID_44_" class="st2" d="M50.36,8.13h5.17c0.91,0,1.64-0.74,1.64-1.64v0c0-0.91-0.74-1.64-1.64-1.64h-5.17
			c-0.91,0-1.64,0.74-1.64,1.64v0C48.72,7.39,49.45,8.13,50.36,8.13z"/>
		<path id="XMLID_43_" class="st3" d="M68.48,19.34h-5.17c-0.91,0-1.64,0.74-1.64,1.64V21c0,0.91,0.74,1.64,1.64,1.64h5.17
			c0.91,0,1.64-0.74,1.64-1.64v-0.01C70.13,20.08,69.39,19.34,68.48,19.34z"/>
		<path id="XMLID_40_" class="st3" d="M79.53,21v-0.01c0-0.91-0.74-1.64-1.64-1.64h-5.17c-0.91,0-1.64,0.74-1.64,1.64V21
			c0,0.91,0.74,1.64,1.64,1.64h5.17C78.79,22.64,79.53,21.91,79.53,21z"/>
		<path id="XMLID_39_" class="st3" d="M79.53,25.83L79.53,25.83c0-0.91-0.74-1.64-1.64-1.64h-5.17c-0.91,0-1.64,0.74-1.64,1.64v0
			c0,0.91,0.74,1.64,1.64,1.64h5.17C78.79,27.47,79.53,26.74,79.53,25.83z"/>
		<path id="XMLID_38_" class="st3" d="M68.48,24.18h-5.17c-0.91,0-1.64,0.74-1.64,1.64v0c0,0.91,0.74,1.64,1.64,1.64h5.17
			c0.91,0,1.64-0.74,1.64-1.64v0C70.13,24.92,69.39,24.18,68.48,24.18z"/>
		<path id="XMLID_36_" class="st3" d="M38.36,21v-0.01c0-0.91-0.74-1.64-1.64-1.64h-5.17c-0.91,0-1.64,0.74-1.64,1.64V21
			c0,0.91,0.74,1.64,1.64,1.64h5.17C37.63,22.64,38.36,21.91,38.36,21z"/>
		<path id="XMLID_27_" class="st3" d="M50.36,22.64h5.17c0.91,0,1.64-0.74,1.64-1.64v-0.01c0-0.91-0.74-1.64-1.64-1.64h-5.17
			c-0.91,0-1.64,0.74-1.64,1.64V21C48.72,21.91,49.45,22.64,50.36,22.64z"/>
		<path id="XMLID_19_" class="st3" d="M46.13,19.34h-5.18c-0.91,0-1.64,0.74-1.64,1.64V21c0,0.91,0.74,1.64,1.64,1.64h5.18
			c0.91,0,1.64-0.74,1.64-1.64v-0.01C47.78,20.08,47.04,19.34,46.13,19.34z"/>
		<path id="XMLID_18_" class="st3" d="M36.72,24.18h-5.17c-0.91,0-1.64,0.74-1.64,1.64v0c0,0.91,0.74,1.64,1.64,1.64h5.17
			c0.91,0,1.64-0.74,1.64-1.64v0C38.36,24.92,37.63,24.18,36.72,24.18z"/>
		<path id="XMLID_17_" class="st3" d="M50.36,27.47h5.17c0.91,0,1.64-0.74,1.64-1.64v0c0-0.91-0.74-1.64-1.64-1.64h-5.17
			c-0.91,0-1.64,0.74-1.64,1.64v0C48.72,26.74,49.45,27.47,50.36,27.47z"/>
		<path id="XMLID_16_" class="st3" d="M47.78,25.83L47.78,25.83c0-0.91-0.74-1.64-1.64-1.64h-5.18c-0.91,0-1.64,0.74-1.64,1.64v0
			c0,0.91,0.74,1.64,1.64,1.64h5.18C47.04,27.47,47.78,26.74,47.78,25.83z"/>
		<path id="XMLID_15_" class="st0" d="M80.48,35.5L80.48,35.5c0,0.91,0.74,1.64,1.64,1.64h5.17c0.91,0,1.64-0.74,1.64-1.64v0
			c0-0.91-0.74-1.64-1.64-1.64h-5.17C81.22,33.85,80.48,34.59,80.48,35.5z"/>
		<path id="XMLID_11_" class="st0" d="M61.67,35.5L61.67,35.5c0,0.91,0.74,1.64,1.64,1.64h5.17c0.91,0,1.64-0.74,1.64-1.64v0
			c0-0.91-0.74-1.64-1.64-1.64h-5.17C62.41,33.85,61.67,34.59,61.67,35.5z"/>
		<path id="XMLID_10_" class="st0" d="M68.48,29.01h-5.17c-0.91,0-1.64,0.74-1.64,1.64v0.01c0,0.91,0.74,1.64,1.64,1.64h5.17
			c0.91,0,1.64-0.74,1.64-1.64v-0.01C70.13,29.75,69.39,29.01,68.48,29.01z"/>
		<path id="XMLID_9_" class="st0" d="M88.94,30.67v-0.01c0-0.91-0.74-1.64-1.64-1.64h-5.17c-0.91,0-1.64,0.74-1.64,1.64v0.01
			c0,0.91,0.74,1.64,1.64,1.64h5.17C88.2,32.31,88.94,31.58,88.94,30.67z"/>
		<path id="XMLID_8_" class="st0" d="M50.36,32.31h5.17c0.91,0,1.64-0.74,1.64-1.64v-0.01c0-0.91-0.74-1.64-1.64-1.64h-5.17
			c-0.91,0-1.64,0.74-1.64,1.64v0.01C48.72,31.58,49.45,32.31,50.36,32.31z"/>
		<path id="XMLID_7_" class="st0" d="M36.72,29.01h-5.17c-0.91,0-1.64,0.74-1.64,1.64v0.01c0,0.91,0.74,1.64,1.64,1.64h5.17
			c0.91,0,1.64-0.74,1.64-1.64v-0.01C38.36,29.75,37.63,29.01,36.72,29.01z"/>
		<path id="XMLID_6_" class="st0" d="M29.91,35.5L29.91,35.5c0,0.91,0.74,1.64,1.64,1.64h5.17c0.91,0,1.64-0.74,1.64-1.64v0
			c0-0.91-0.74-1.64-1.64-1.64h-5.17C30.64,33.85,29.91,34.59,29.91,35.5z"/>
		<path id="XMLID_5_" class="st0" d="M48.72,35.5L48.72,35.5c0,0.91,0.74,1.64,1.64,1.64h5.17c0.91,0,1.64-0.74,1.64-1.64v0
			c0-0.91-0.74-1.64-1.64-1.64h-5.17C49.45,33.85,48.72,34.59,48.72,35.5z"/>
	</g>
	<path id="XMLID_3_" class="st0" d="M47.78,30.67v-0.01c0-0.91-0.74-1.64-1.64-1.64h-5.18c-0.91,0-1.64,0.74-1.64,1.64v0.01
		l0.01,49.17h8.47L47.78,30.67z"/>
	<path id="XMLID_2_" class="st0" d="M79.54,30.67v-0.01c0-0.91-0.74-1.64-1.64-1.64h-5.18c-0.91,0-1.64,0.74-1.64,1.64v0.01
		l0.01,49.17h8.47L79.54,30.67z"/>
</g>
</svg>
